HIERARCHY
ROOT Hips
{
	OFFSET 0.0000 0.0000 0.0000
	CHANNELS 6 Xposition Yposition Zposition Zrotation Xrotation Yrotation
	JOINT Ab
	{
		OFFSET -0.0000 8.1305 -0.0000
		CHANNELS 3 Zrotation Xrotation Yrotation
		JOINT Chest
		{
			OFFSET -0.0000 26.2902 -0.0000
			CHANNELS 3 Zrotation Xrotation Yrotation
			JOINT Neck
			{
				OFFSET -0.0000 26.2902 0.0000
				CHANNELS 3 Zrotation Xrotation Yrotation
				JOINT Head
				{
					OFFSET -0.0000 10.8167 0.0000
					CHANNELS 3 Zrotation Xrotation Yrotation
					End Site
					{
						OFFSET -0.0000 16.7167 0.0000
					}
				}
			}
			JOINT LeftCollar
			{
				OFFSET -0.0000 26.2902 0.0000
				CHANNELS 3 Zrotation Xrotation Yrotation
				JOINT LeftShoulder
				{
					OFFSET 19.6667 -0.0000 0.0000
					CHANNELS 3 Zrotation Xrotation Yrotation
					JOINT LeftElbow
					{
						OFFSET 27.2190 0.0000 0.0000
						CHANNELS 3 Zrotation Xrotation Yrotation
						JOINT LeftWrist
						{
							OFFSET 30.7431 0.0000 0.0000
							CHANNELS 3 Zrotation Xrotation Yrotation
							End Site
							{
								OFFSET 0.0000 -14.7500 0.0000
							}
						}
					}
				}
			}
			JOINT RightCollar
			{
				OFFSET -0.0000 26.2902 0.0000
				CHANNELS 3 Zrotation Xrotation Yrotation
				JOINT RightShoulder
				{
					OFFSET -19.6667 0.0000 0.0000
					CHANNELS 3 Zrotation Xrotation Yrotation
					JOINT RightElbow
					{
						OFFSET -27.2190 0.0000 0.0000
						CHANNELS 3 Zrotation Xrotation Yrotation
						JOINT RightWrist
						{
							OFFSET -30.7431 0.0000 0.0000
							CHANNELS 3 Zrotation Xrotation Yrotation
							End Site
							{
								OFFSET -0.0000 -14.7500 0.0000
							}
						}
					}
				}
			}
		}
	}
	JOINT LeftHip
	{
		OFFSET 11.8000 0.0000 0.0000
		CHANNELS 3 Zrotation Xrotation Yrotation
		JOINT LeftKnee
		{
			OFFSET -0.0000 -39.7832 0.0000
			CHANNELS 3 Zrotation Xrotation Yrotation
			JOINT LeftAnkle
			{
				OFFSET -0.0000 -41.7317 0.0000
				CHANNELS 3 Zrotation Xrotation Yrotation
				End Site
				{
					OFFSET -0.0000 -4.9167 16.7167
				}
			}
		}
	}
	JOINT RightHip
	{
		OFFSET -11.8000 0.0000 0.0000
		CHANNELS 3 Zrotation Xrotation Yrotation
		JOINT RightKnee
		{
			OFFSET -0.0000 -39.7832 0.0000
			CHANNELS 3 Zrotation Xrotation Yrotation
			JOINT RightAnkle
			{
				OFFSET -0.0000 -41.7317 0.0000
				CHANNELS 3 Zrotation Xrotation Yrotation
				End Site
				{
					OFFSET -0.0000 -4.9167 16.7167
				}
			}
		}
	}
}
MOTION
Frames: 20
Frame Time: 0.010000
-16.4252 96.6408 177.7928 358.6798 358.2140 178.7821 358.4315 348.6017 0.5187 2.1135 8.8817 0.5122 359.7554 353.5176 0.3029 353.8416 4.4622 0.5548 338.6237 357.4272 13.6419 318.5846 58.3321 340.7242 8.4296 357.5453 327.6674 83.5124 357.5028 345.5876 28.5015 355.9668 344.1966 44.6046 46.5227 4.0631 342.5551 355.0946 31.1109 271.3851 355.7744 12.5204 357.1291 3.2100 358.2554 357.5431 9.6982 358.8030 355.9361 348.1240 22.4415 359.8478 8.2488 8.4336 5.8640 3.7802 5.6511 350.4231 343.3732 319.5369 
-16.4468 96.6351 177.7861 358.6833 358.1825 178.7801 358.4262 348.6040 0.5212 2.1352 8.8916 0.5100 359.7396 353.5145 0.3174 353.8550 4.4713 0.5696 338.6113 357.4200 13.6474 318.5611 58.3079 340.7600 8.4439 357.5470 327.6084 83.4281 357.5251 345.5530 28.4783 355.9500 344.2066 44.6164 46.5157 4.0624 342.4889 355.0922 31.1223 271.4069 355.7575 12.4553 357.1131 3.1059 358.2096 357.5408 9.8576 358.7536 353.9782 347.5721 22.4827 359.8242 8.2027 8.4856 5.8891 3.8203 5.6423 350.4676 343.2785 319.4955 
-16.4729 96.6318 177.7731 358.6847 358.1588 178.7865 358.4293 348.6096 0.5194 2.1366 8.8991 0.5077 359.7607 353.5219 0.3290 353.8372 4.4868 0.5823 338.6260 357.4065 13.6486 318.5305 58.3384 340.7662 8.4804 357.5521 327.6026 83.4769 357.5311 345.6212 28.4815 355.9713 344.2027 44.5984 46.4298 4.0507 342.5410 355.0846 31.2505 271.2516 355.9702 12.1684 357.0966 2.9948 358.1273 357.5182 10.0533 358.7613 354.0492 347.4053 22.5117 359.7943 8.1692 8.5093 5.9115 3.8698 5.6406 350.4883 343.1924 319.4796 
-16.4981 96.6248 177.7658 358.6940 358.1202 178.7954 358.4379 348.6140 0.5169 2.1359 8.8880 0.5065 359.1725 354.0732 0.2349 354.7084 3.6990 0.4474 338.6374 357.4010 13.6611 318.5480 58.3634 340.7279 8.4483 357.5389 327.6051 83.5152 357.5206 345.6112 28.4672 355.9526 344.2008 44.6172 46.4381 4.0328 342.4887 355.0773 31.2581 271.2954 355.9388 12.1359 357.0925 2.8615 358.0632 357.4937 10.2625 358.7166 354.2611 347.2829 22.5797 359.7745 8.1091 8.5270 5.9375 3.9423 5.6533 350.4769 343.0932 319.4499 
-16.5283 96.6205 177.7559 358.6953 358.0854 178.7989 358.4480 348.6280 0.5208 2.1286 8.8733 0.5050 359.0370 354.1955 0.2294 354.9263 3.5405 0.4346 338.6461 357.3968 13.6944 318.6031 58.4256 340.6486 8.4665 357.5468 327.6304 83.3734 357.4925 345.5927 28.4660 355.9768 344.1972 44.6140 46.3953 4.0162 342.5140 355.0666 31.3316 271.5362 355.8435 11.7582 357.0701 2.7197 358.0023 357.4795 10.4942 358.7027 354.3319 347.1027 22.6041 359.7422 8.0457 8.5124 5.9649 4.0249 5.6591 350.6343 342.7935 319.4019 
-16.5620 96.6159 177.7453 358.6941 358.0510 178.7923 358.4733 348.6403 0.5199 2.1013 8.8711 0.5056 359.0190 354.1869 0.2381 354.9669 3.5670 0.4439 338.6622 357.4198 13.7191 318.6209 58.4329 340.5954 8.4548 357.5353 327.6521 83.0200 357.4840 345.3679 28.4694 355.9749 344.1950 44.6012 46.3750 4.0263 342.4847 355.0662 31.3553 271.6271 355.7765 11.6246 357.0427 2.5790 357.9288 357.4619 10.7220 358.6881 354.5336 346.9582 22.6594 359.6982 7.9771 8.5608 6.0044 4.1192 5.6514 350.7284 342.5668 319.3425 
-16.5960 96.6097 177.7322 358.7015 358.0210 178.7863 358.5108 348.6556 0.5186 2.0724 8.8808 0.5033 359.0187 354.1631 0.2492 354.9729 3.6014 0.4574 338.6813 357.4130 13.7345 318.5744 58.4274 340.6037 8.5098 357.5203 327.6261 83.0948 357.5023 345.4692 28.4756 355.9698 344.1913 44.5714 46.3713 4.0414 342.5277 355.0618 31.3748 271.3099 355.8913 11.9270 357.0262 2.4411 357.8695 357.4437 10.9595 358.6447 354.7144 346.8020 22.7129 359.6670 7.9035 8.6034 6.0404 4.2406 5.6631 350.7635 342.3929 319.3560 
-16.6323 96.6039 177.7192 358.7037 357.9820 178.7725 358.5268 348.6483 0.5242 2.0705 8.9226 0.5083 359.0516 354.1376 0.2681 354.9199 3.6168 0.4765 338.6888 357.4187 13.7382 318.5184 58.3840 340.6419 8.5040 357.5195 327.5606 83.2858 357.5489 345.5861 28.4712 355.9742 344.1990 44.5352 46.3361 4.0595 342.5414 355.0557 31.4365 271.3845 355.8787 11.8191 357.0024 2.2828 357.8203 357.4245 11.2190 358.5923 354.8602 346.6228 22.7646 359.6282 7.8059 8.6325 6.0787 4.3918 5.6878 350.8269 342.1090 319.3276 
-16.6703 96.5979 177.7025 358.7057 357.9536 178.7511 358.5323 348.6525 0.5373 2.0811 8.9558 0.5206 359.0988 354.1359 0.2894 354.8554 3.6177 0.4978 338.6874 357.4041 13.7295 318.4853 58.3748 340.6775 8.5294 357.5067 327.5251 83.3126 357.5552 345.6366 28.4649 355.9822 344.2238 44.5259 46.2498 4.0372 342.5676 355.0637 31.4939 271.3585 355.8964 11.8643 356.9757 2.1453 357.7713 357.4074 11.4613 358.5589 355.0405 346.4535 22.7984 359.5860 7.7106 8.6477 6.1233 4.5567 5.7152 350.9593 341.7395 319.2628 
-16.7108 96.5913 177.6829 358.7069 357.9284 178.7325 358.5371 348.6698 0.5511 2.0914 8.9673 0.5309 359.1173 354.1587 0.3059 354.8430 3.5980 0.5134 338.6777 357.4038 13.7233 318.4859 58.3771 340.6862 8.5052 357.5042 327.5040 83.3547 357.5611 345.6695 28.4606 355.9882 344.2506 44.5439 46.1731 3.9781 342.6040 355.0551 31.5359 271.1973 355.9885 12.1469 356.9432 2.0081 357.7403 357.3991 11.7157 358.5138 355.1975 346.2821 22.8295 359.5395 7.6099 8.5788 6.1690 4.7486 5.8041 351.0590 341.3932 319.2282 
-16.7517 96.5835 177.6564 358.7105 357.9022 178.7082 358.5439 348.6815 0.5646 2.1022 8.9859 0.5419 359.1259 354.1647 0.3140 354.8363 3.6055 0.5208 338.6804 357.4051 13.7254 318.4481 58.3785 340.7113 8.5271 357.4923 327.4851 83.2342 357.5572 345.6592 28.4564 355.9812 344.2628 44.5386 46.1459 3.9534 342.6041 355.0419 31.5536 271.2447 355.9660 12.2192 356.9163 1.8826 357.7080 357.3768 11.9590 358.4758 355.3232 346.0881 22.8780 359.4960 7.5145 8.5106 6.2097 4.9393 5.9095 351.1737 341.0158 319.1928 
-16.7942 96.5735 177.6230 358.7165 357.8872 178.6718 358.5578 348.7020 0.5793 2.1093 9.0112 0.5546 359.1551 354.1560 0.3269 354.7947 3.6396 0.5353 338.6865 357.4015 13.7413 318.4105 58.3662 340.7332 8.5426 357.4921 327.4637 83.1523 357.5594 345.6719 28.4652 355.9883 344.2769 44.5013 46.1180 3.9336 342.6450 355.0404 31.6106 271.2117 355.9888 12.2212 356.8925 1.7883 357.6803 357.3463 12.1763 358.4472 355.4292 345.8724 22.9375 359.4472 7.4389 8.5062 6.2655 5.1118 5.9616 351.3422 340.5821 319.1642 
-16.8408 96.5620 177.5924 358.7256 357.8704 178.6332 358.5715 348.7327 0.5993 2.1280 9.0301 0.5736 359.1516 354.1584 0.3398 354.7920 3.6450 0.5499 338.6867 357.3961 13.7612 318.4137 58.3816 340.7119 8.5357 357.4823 327.4584 83.2161 357.5710 345.7344 28.4716 356.0082 344.2930 44.4599 46.0505 3.9269 342.6823 355.0529 31.6467 271.2265 355.9567 12.3415 356.8632 1.7017 357.6775 357.3344 12.3704 358.4168 355.7350 345.7353 22.9384 359.3949 7.3504 8.4825 6.3278 5.3054 6.0089 351.4455 340.1684 319.1780 
-16.8879 96.5489 177.5563 358.7449 357.8584 178.6048 358.6030 348.7661 0.6121 2.1252 9.0377 0.5810 359.1371 354.2191 0.3509 354.8315 3.6101 0.5576 338.6976 357.4001 13.7508 318.3677 58.3921 340.7648 8.5440 357.4901 327.4644 83.1168 357.5256 345.7194 28.4829 356.0039 344.3156 44.4473 46.0163 3.8953 342.6682 355.0608 31.6871 271.2380 355.9712 12.3185 356.8421 1.6346 357.6510 357.3269 12.5404 358.3954 355.8242 345.5755 22.8356 359.3541 7.2741 8.4432 6.3885 5.4993 6.0827 351.5752 339.7289 319.2077 
-16.9380 96.5315 177.5191 358.7740 357.8368 178.5904 358.6197 348.7960 0.6282 2.1612 9.0523 0.5889 359.1615 354.2495 0.3651 354.8102 3.6064 0.5714 338.6868 357.3985 13.7562 318.3518 58.3882 340.7777 8.5374 357.5112 327.4938 82.9289 357.4704 345.5873 28.4481 355.9824 344.2941 44.4433 46.0654 3.9124 342.6155 355.0298 31.6927 271.2781 355.9765 12.2744 356.8298 1.5599 357.5702 357.3107 12.7115 358.3950 354.9645 345.1641 22.8317 359.3231 7.1936 8.4023 6.4448 5.6922 6.1798 351.6927 339.2613 319.1947 
-16.9910 96.5178 177.4794 358.7844 357.8103 178.5651 358.6288 348.8132 0.6291 2.1837 9.0837 0.5907 359.2037 354.2229 0.3812 354.7383 3.6689 0.5902 338.7011 357.4021 13.7830 318.3264 58.3757 340.7486 8.5307 357.5160 327.5157 82.8979 357.4501 345.5841 28.4427 355.9874 344.3037 44.4332 46.0228 3.8842 342.6453 355.0561 31.7390 271.2552 355.9684 12.3042 356.8095 1.5430 357.2482 357.2126 12.7429 358.7322 354.3705 344.9232 22.7488 359.2673 7.1047 8.3830 6.5095 5.8882 6.2423 351.7993 338.8255 319.2045 
-17.0435 96.5020 177.4326 358.8064 357.7912 178.5310 358.6582 348.8290 0.6344 2.1909 9.1186 0.5903 359.2609 354.2067 0.4164 354.6656 3.7183 0.6265 338.7036 357.3715 13.7932 318.2851 58.3525 340.8059 8.5258 357.5115 327.5040 82.9050 357.4097 345.5265 28.4735 356.0063 344.3322 44.3427 45.9629 3.8946 342.7363 355.0715 31.7527 271.2618 355.8865 12.5106 356.7942 1.5194 357.2386 357.2117 12.8281 358.6782 355.1605 345.2454 22.6013 359.2359 7.0323 8.3270 6.5457 6.0415 5.9173 352.2205 338.1681 319.5379 
-17.1006 96.4861 177.3785 358.8202 357.7615 178.5094 358.6982 348.8368 0.6311 2.1668 9.1463 0.5815 359.3392 354.2125 0.4361 354.5394 3.7811 0.6505 338.7325 357.3919 13.8286 318.2581 58.3466 340.8183 8.4429 357.5306 327.4473 83.2530 357.5539 345.8436 28.4744 355.9926 344.3414 44.3368 46.0160 3.8994 342.7308 355.0227 31.7874 271.0210 355.8979 12.3723 356.7686 1.4689 357.2194 357.1833 12.9543 358.6809 355.5105 345.2069 22.5584 359.1885 6.9676 8.3002 6.6053 6.2141 6.1739 352.1496 337.8291 319.3700 
-17.1625 96.4711 177.3310 358.8173 357.7114 178.4725 358.6906 348.8399 0.6439 2.1860 9.1602 0.5962 359.3426 354.2430 0.4610 354.5624 3.7878 0.6743 338.7405 357.3839 13.8423 318.1425 58.3141 340.9436 8.4959 357.5349 327.4363 83.0139 357.3919 345.6115 28.4845 356.0124 344.3541 44.2759 45.9994 3.9081 342.7534 355.0754 31.8249 271.0114 355.8569 12.3701 356.7129 1.3985 357.2141 357.1866 13.0843 358.6846 355.5468 345.0370 22.5746 359.1254 6.8627 8.2389 6.6494 6.3971 6.2379 352.1777 337.5169 319.4475 
-17.2232 96.4585 177.2691 358.8224 357.6736 178.4468 358.6978 348.8378 0.6443 2.1911 9.1943 0.5911 359.3559 354.2516 0.4711 354.5601 3.8332 0.6849 338.7627 357.3778 13.8673 318.1135 58.3263 340.9536 8.4775 357.5344 327.4612 83.0089 357.3742 345.5637 28.4940 356.0094 344.3666 44.2610 45.9352 3.8914 342.7637 355.0574 31.8842 270.9870 355.8784 12.3643 356.6760 1.3616 357.1937 357.1740 13.1814 358.6704 355.5708 344.8433 22.5992 359.0799 6.8131 8.1446 6.6708 6.5287 6.3976 352.2397 337.1883 319.4439 
